<svg width="27" height="36" viewBox="0 0 27 36" fill="none" xmlns="http://www.w3.org/2000/svg">
<path d="M13.1483 1.09417e-09C9.67168 0.00287555 6.33749 1.36803 3.87395 3.79729C1.4104 6.22656 0.0176914 9.52252 0 12.9653C0 18.1271 2.92432 22.4489 5.06733 25.599L5.45798 26.1738C7.59014 29.234 9.87746 32.1853 12.3112 35.0163L13.1594 36L14.0077 35.0163C16.4411 32.185 18.7284 29.2337 20.8609 26.1738L21.2515 25.588C23.3834 22.4378 26.3077 18.1271 26.3077 12.9653C26.29 9.52061 24.8957 6.22298 22.4298 3.7934C19.9638 1.36382 16.6268 -4.4606e-05 13.1483 1.09417e-09V1.09417e-09ZM13.1483 18.7903C11.7001 18.7903 10.2845 18.365 9.08041 17.5683C7.87632 16.7716 6.93784 15.6391 6.38366 14.3142C5.82948 12.9893 5.68448 11.5314 5.967 10.1249C6.24952 8.71836 6.94687 7.42638 7.97086 6.41233C8.99486 5.39828 10.2995 4.70771 11.7198 4.42793C13.1401 4.14816 14.6123 4.29175 15.9503 4.84055C17.2882 5.38935 18.4317 6.31871 19.2362 7.5111C20.0408 8.7035 20.4702 10.1054 20.4702 11.5395C20.4702 13.4625 19.6988 15.3068 18.3257 16.6666C16.9525 18.0264 15.0902 18.7903 13.1483 18.7903V18.7903Z" fill="#001858"/>
<path d="M13.1538 15.923C15.448 15.923 17.3077 14.0633 17.3077 11.7692C17.3077 9.4751 15.448 7.61536 13.1538 7.61536C10.8597 7.61536 9 9.4751 9 11.7692C9 14.0633 10.8597 15.923 13.1538 15.923Z" fill="#001858"/>
</svg>
