<svg width="61" height="61" viewBox="0 0 61 61" fill="none" xmlns="http://www.w3.org/2000/svg">
<path d="M60.8035 18.0044C60.7694 15.4432 60.2891 12.9074 59.3842 10.5105C58.5995 8.48871 57.401 6.65257 55.8653 5.1194C54.3296 3.58622 52.4904 2.38972 50.4652 1.60633C48.0952 0.718139 45.5914 0.237877 43.0604 0.185996C39.8018 0.0405812 38.7686 0 30.4966 0C22.2246 0 21.1644 2.26764e-07 17.9294 0.185996C15.3996 0.238258 12.8969 0.718514 10.528 1.60633C8.50253 2.38917 6.66306 3.58548 5.12726 5.11873C3.59146 6.65197 2.39315 8.48839 1.60901 10.5105C0.717553 12.8748 0.237534 15.3738 0.189693 17.8996C0.044036 21.1562 0 22.1877 0 30.4459C0 38.7041 -2.5238e-08 39.7592 0.189693 42.9922C0.240504 45.5217 0.718125 48.0175 1.60901 50.3881C2.39447 52.4096 3.59366 54.2452 5.12998 55.7778C6.66629 57.3104 8.50594 58.5062 10.5314 59.2888C12.8939 60.2127 15.3969 60.7274 17.9328 60.8106C21.1949 60.956 22.228 61 30.5 61C38.772 61 39.8322 61 43.0672 60.8106C45.5981 60.7609 48.1021 60.2817 50.472 59.3937C52.4966 58.6094 54.3354 57.4126 55.871 55.8795C57.4066 54.3464 58.6054 52.5108 59.391 50.4895C60.2819 48.1223 60.7595 45.6266 60.8103 43.0936C60.956 39.8404 61 38.809 61 30.5473C60.9932 22.2891 60.9932 21.2408 60.8035 18.0044V18.0044ZM30.4763 46.0628C21.8249 46.0628 14.8164 39.066 14.8164 30.429C14.8164 21.792 21.8249 14.7952 30.4763 14.7952C34.6295 14.7952 38.6127 16.4423 41.5495 19.3742C44.4863 22.3061 46.1362 26.2826 46.1362 30.429C46.1362 34.5753 44.4863 38.5519 41.5495 41.4838C38.6127 44.4157 34.6295 46.0628 30.4763 46.0628V46.0628ZM46.7594 17.8624C46.2798 17.8628 45.8047 17.7689 45.3615 17.5858C44.9183 17.4028 44.5156 17.1343 44.1764 16.7956C43.8372 16.457 43.5682 16.055 43.3849 15.6125C43.2015 15.17 43.1074 14.6957 43.1078 14.2169C43.1078 13.7384 43.2022 13.2645 43.3857 12.8224C43.5691 12.3804 43.838 11.9787 44.1769 11.6403C44.5158 11.3019 44.9182 11.0335 45.361 10.8504C45.8038 10.6673 46.2784 10.573 46.7578 10.573C47.2371 10.573 47.7117 10.6673 48.1545 10.8504C48.5973 11.0335 48.9997 11.3019 49.3386 11.6403C49.6775 11.9787 49.9464 12.3804 50.1298 12.8224C50.3132 13.2645 50.4077 13.7384 50.4077 14.2169C50.4077 16.2324 48.7749 17.8624 46.7594 17.8624Z" fill="#001858"/>
<path d="M30.5 41C36.299 41 41 36.299 41 30.5C41 24.701 36.299 20 30.5 20C24.701 20 20 24.701 20 30.5C20 36.299 24.701 41 30.5 41Z" fill="#001858"/>
</svg>
