<svg width="75" height="61" viewBox="0 0 75 61" fill="none" xmlns="http://www.w3.org/2000/svg">
<path d="M66.2088 9.66324C69.5753 7.59106 71.8043 4.76269 72.896 1.16561C69.8214 2.833 66.522 4.04463 63.1007 4.76269C60.1717 1.60428 56.4635 0 52.0179 0C47.6724 0 44.0017 1.52907 41.0061 4.50366C39.5594 5.9162 38.4155 7.61005 37.6447 9.48143C36.8738 11.3528 36.4921 13.3623 36.523 15.3868C36.523 16.6778 36.6855 17.8308 37.0104 18.8084C24.1945 18.3698 13.5867 13.0389 5.22888 2.77823C3.81229 5.28909 3.10399 7.8459 3.10399 10.4904C3.10399 15.9258 5.39137 20.2331 9.95778 23.3957C7.35376 23.1742 5.05805 22.5141 3.10399 21.4321C3.10399 25.3133 4.24143 28.5552 6.52047 31.4087C8.73433 34.1891 11.8543 36.0987 15.3325 36.8022C14.0326 37.1364 12.6618 37.2952 11.2535 37.2952C9.95361 37.2952 9.03283 37.1866 8.48703 36.9484C9.44531 40.111 11.2535 42.6762 13.8659 44.6397C16.4484 46.606 19.5898 47.6936 22.8321 47.7439C17.2824 52.1097 10.9369 54.2696 3.75812 54.2696C1.99989 54.2696 0.754125 54.2445 0 54.1108C7.07044 58.7147 14.9408 61 23.6487 61C32.5607 61 40.4353 58.7356 47.289 54.2069C54.1428 49.7032 59.2009 44.1468 62.4507 37.6043C65.6645 31.2738 67.3378 24.2702 67.3338 17.1666V15.2114C70.3293 12.9968 72.9225 10.282 75 7.18581C72.1944 8.40515 69.2372 9.23851 66.2088 9.66324V9.66324Z" fill="#001858"/>
</svg>
