<svg width="61" height="61" viewBox="0 0 61 61" fill="none" xmlns="http://www.w3.org/2000/svg">
<path d="M56.438 14.1059C47.3132 -0.000466306 28.6833 -4.19425 14.2356 4.57457C0.168099 13.3434 -4.39433 32.406 4.73053 46.5124L5.49093 47.6561L2.44931 59.0937L13.8554 56.0437L14.996 56.8062C19.9386 59.475 25.2615 61 30.5843 61C36.2873 61 41.9904 59.475 46.933 56.425C61.0005 47.2749 65.1827 28.5935 56.438 14.1059V14.1059ZM48.4538 43.4624C46.933 45.7499 45.032 47.2749 42.3706 47.6561C40.8497 47.6561 38.9487 48.4187 31.3447 45.3686C24.8812 42.3186 19.5584 37.3623 15.7564 31.6435C13.4752 28.9748 12.3346 25.5435 11.9544 22.1122C11.9544 19.0622 13.095 16.3934 14.996 14.4871C15.7564 13.7246 16.5168 13.3434 17.2772 13.3434H19.1782C19.9386 13.3434 20.699 13.3434 21.0792 14.8684C21.8396 16.7747 23.7406 21.3497 23.7406 21.7309C24.1208 22.1122 24.1208 22.8747 23.7406 23.256C24.1208 24.0185 23.7406 24.781 23.3604 25.1622C22.9802 25.5435 22.6 26.306 22.2198 26.6872C21.4594 27.0685 21.0792 27.831 21.4594 28.5935C22.9802 30.881 24.8812 33.1685 26.7823 35.0748C29.0635 36.9811 31.3447 38.5061 34.0061 39.6498C34.7665 40.0311 35.5269 40.0311 35.9071 39.2686C36.2873 38.5061 38.1883 36.5998 38.9487 35.8373C39.7091 35.0748 40.0893 35.0748 40.8497 35.4561L46.933 38.5061C47.6934 38.8873 48.4538 39.2686 48.834 39.6498C49.2142 40.7936 49.2142 42.3186 48.4538 43.4624V43.4624Z" fill="#001858"/>
</svg>
