<svg width="391" height="117" viewBox="0 0 391 117" fill="none" xmlns="http://www.w3.org/2000/svg">
<rect width="391" height="117" rx="15" fill="#001858"/>
<path d="M61.3793 66.0782H68.444V29.2682H82.7608V23.0615C70.1945 23.0615 59.5663 23.0615 47 23.0615V29.2682H61.3793V66.0782Z" fill="#FF6E6C"/>
<path d="M82.416 35.7821V52.067C82.416 61.2235 87.8551 66.5698 95.4199 66.5698C99.7337 66.5698 103.047 65.0335 106.048 61.6536L106.423 66.1397H112.237V35.7821H105.798V51.5754C105.798 56.6145 102.297 60.7318 97.2329 60.7318C91.8563 60.7318 88.8554 57.1676 88.8554 52.0056V35.7821H82.416Z" fill="#FF6E6C"/>
<path d="M121.014 35.7821V66.0782H127.453V49.6704C127.453 44.0782 131.329 41.3743 135.768 41.3743C138.144 41.3743 139.644 41.9888 141.207 43.2179L144.146 37.6872C142.395 36.1508 139.519 35.1061 136.518 35.1061C133.205 35.1061 129.704 35.905 127.453 39.7765L127.015 35.7821H121.014Z" fill="#FF6E6C"/>
<path d="M154.988 35.6592V66.0782H148.549V35.6592H154.988ZM147.798 26.8715C147.798 32.095 155.801 32.095 155.801 26.8715C155.801 21.7095 147.798 21.7095 147.798 26.8715Z" fill="#FF6E6C"/>
<path d="M187.071 39.0391C183.632 36.0279 179.943 34.9832 175.192 34.9832C169.44 34.9832 162.376 37.5028 162.376 44.2011C162.438 50.8994 169.128 52.743 174.942 53.2961C179.506 53.7263 182.132 54.771 182.069 57.4749C182.007 60.3017 178.568 61.4078 175.505 61.4078C171.879 61.3464 167.565 60.0559 164.689 56.9218L161.313 61.4078C165.377 65.8939 170.378 67 175.38 67C183.382 67 188.446 63.067 188.509 57.4134C188.571 49.6089 181.131 48.3799 175.442 47.8883C171.503 47.5196 168.815 46.5363 168.753 44.0168C168.753 41.6201 171.378 40.3296 175.317 40.3911C178.38 40.3911 181.006 41.0056 183.445 43.2179L187.071 39.0391Z" fill="#FF6E6C"/>
<path d="M198.388 27.7318V35.8436H192.449V41.3129H198.388V55.7542C198.388 62.8827 202.202 66.6313 208.891 66.4469C211.079 66.4469 212.955 66.0168 215.081 65.095L213.205 59.6872C211.955 60.3017 210.517 60.7318 209.266 60.7318C206.265 60.7318 204.827 58.9497 204.827 55.7542V41.3129H213.893V35.8436H204.89V27.0559L198.388 27.7318Z" fill="#FF6E6C"/>
<path d="M250.23 53.2961C251.418 40.9441 244.666 34.9832 234.726 34.9832C225.098 34.9832 218.533 41.5587 218.533 50.7765C218.533 60.486 225.035 66.8156 235.163 66.8156C239.915 66.8156 245.229 65.095 248.417 61.6536L244.228 57.6592C242.353 59.7486 238.414 60.9162 235.288 60.9162C229.662 60.9162 225.785 57.905 225.223 53.2961H250.23ZM225.348 47.9497C226.348 43.1564 230.224 40.6369 234.913 40.6369C240.102 40.6369 243.666 43.1564 244.041 47.9497H225.348Z" fill="#FF6E6C"/>
<path d="M291.761 66.0782H299.201L279.57 23.0615H271.942L252.312 66.0782H259.751L263.877 57.0447H287.572L291.761 66.0782ZM285.009 50.7765H266.503L275.756 30.3129L285.009 50.7765Z" fill="#FF6E6C"/>
<path d="M342.25 64.8492L329.183 50.5307C337.811 49.3017 341.062 43.2793 341.062 37.1341C341.062 29.8827 335.748 23.0615 325.62 23.0615C318.805 23.0615 312.053 23 305.239 23V66.0782H312.241V51.2067H321.494L334.81 66.0782H343L342.25 64.8492ZM325.62 29.3296C331.371 29.3296 333.935 33.3855 333.935 37.257C333.935 41.3128 331.371 44.9385 325.557 44.9385H312.241V29.3296H325.62Z" fill="#FF6E6C"/>
<rect x="308" y="84" width="35" height="3" fill="#FF6E6C"/>
<rect x="46" y="84" width="35" height="3" fill="#FF6E6C"/>
<path d="M62.3793 67.0782H69.444V30.2682H83.7608V24.0615C71.1945 24.0615 60.5663 24.0615 48 24.0615V30.2682H62.3793V67.0782Z" fill="#8BD3DD"/>
<path d="M83.416 36.7821V53.067C83.416 62.2235 88.8551 67.5698 96.4199 67.5698C100.734 67.5698 104.047 66.0335 107.048 62.6536L107.423 67.1397H113.237V36.7821H106.798V52.5754C106.798 57.6145 103.297 61.7318 98.2329 61.7318C92.8563 61.7318 89.8554 58.1676 89.8554 53.0056V36.7821H83.416Z" fill="#8BD3DD"/>
<path d="M122.014 36.7821V67.0782H128.453V50.6704C128.453 45.0782 132.329 42.3743 136.768 42.3743C139.144 42.3743 140.644 42.9888 142.207 44.2179L145.146 38.6872C143.395 37.1508 140.519 36.1061 137.518 36.1061C134.205 36.1061 130.704 36.905 128.453 40.7765L128.015 36.7821H122.014Z" fill="#8BD3DD"/>
<path d="M155.988 36.6592V67.0782H149.549V36.6592H155.988ZM148.798 27.8715C148.798 33.095 156.801 33.095 156.801 27.8715C156.801 22.7095 148.798 22.7095 148.798 27.8715Z" fill="#8BD3DD"/>
<path d="M188.071 40.0391C184.632 37.0279 180.943 35.9832 176.192 35.9832C170.44 35.9832 163.376 38.5028 163.376 45.2011C163.438 51.8994 170.128 53.743 175.942 54.2961C180.506 54.7263 183.132 55.771 183.069 58.4749C183.007 61.3017 179.568 62.4078 176.505 62.4078C172.879 62.3464 168.565 61.0559 165.689 57.9218L162.313 62.4078C166.377 66.8939 171.378 68 176.38 68C184.382 68 189.446 64.067 189.509 58.4134C189.571 50.6089 182.131 49.3799 176.442 48.8883C172.503 48.5196 169.815 47.5363 169.753 45.0168C169.753 42.6201 172.378 41.3296 176.317 41.3911C179.38 41.3911 182.006 42.0056 184.445 44.2179L188.071 40.0391Z" fill="#8BD3DD"/>
<path d="M199.388 28.7318V36.8436H193.449V42.3129H199.388V56.7542C199.388 63.8827 203.202 67.6313 209.891 67.4469C212.079 67.4469 213.955 67.0168 216.081 66.095L214.205 60.6872C212.955 61.3017 211.517 61.7318 210.266 61.7318C207.265 61.7318 205.827 59.9497 205.827 56.7542V42.3129H214.893V36.8436H205.89V28.0559L199.388 28.7318Z" fill="#8BD3DD"/>
<path d="M251.23 54.2961C252.418 41.9441 245.666 35.9832 235.726 35.9832C226.098 35.9832 219.533 42.5587 219.533 51.7765C219.533 61.486 226.035 67.8156 236.163 67.8156C240.915 67.8156 246.229 66.095 249.417 62.6536L245.228 58.6592C243.353 60.7486 239.414 61.9162 236.288 61.9162C230.662 61.9162 226.785 58.905 226.223 54.2961H251.23ZM226.348 48.9497C227.348 44.1564 231.224 41.6369 235.913 41.6369C241.102 41.6369 244.666 44.1564 245.041 48.9497H226.348Z" fill="#8BD3DD"/>
<path d="M292.761 67.0782H300.201L280.57 24.0615H272.942L253.312 67.0782H260.751L264.877 58.0447H288.572L292.761 67.0782ZM286.009 51.7765H267.503L276.756 31.3129L286.009 51.7765Z" fill="#8BD3DD"/>
<path d="M343.25 65.8492L330.183 51.5307C338.811 50.3017 342.062 44.2793 342.062 38.1341C342.062 30.8827 336.748 24.0615 326.62 24.0615C319.805 24.0615 313.053 24 306.239 24V67.0782H313.241V52.2067H322.494L335.81 67.0782H344L343.25 65.8492ZM326.62 30.3296C332.371 30.3296 334.935 34.3855 334.935 38.257C334.935 42.3128 332.371 45.9385 326.557 45.9385H313.241V30.3296H326.62Z" fill="#8BD3DD"/>
<path d="M95 82.1406H98.1797C98.9193 82.1406 99.5391 82.2708 100.039 82.5312C100.544 82.7917 100.924 83.1771 101.18 83.6875C101.44 84.1927 101.57 84.8151 101.57 85.5547C101.57 86.0755 101.484 86.5521 101.312 86.9844C101.141 87.4115 100.891 87.776 100.562 88.0781C100.234 88.375 99.8359 88.5964 99.3672 88.7422L98.9766 88.9062H96.1406L96.125 87.6797H98.1641C98.6016 87.6797 98.9661 87.5859 99.2578 87.3984C99.5495 87.2057 99.7682 86.9479 99.9141 86.625C100.06 86.3021 100.133 85.9453 100.133 85.5547C100.133 85.1172 100.068 84.7344 99.9375 84.4062C99.8073 84.0781 99.599 83.8255 99.3125 83.6484C99.0312 83.4661 98.6536 83.375 98.1797 83.375H96.4375V93.5156H95V82.1406ZM100.461 93.5156L98.1953 88.3594L99.6875 88.3516L102 93.4219V93.5156H100.461Z" fill="#8BD3DD"/>
<path d="M112.809 92.2891V93.5156H107.872V92.2891H112.809ZM108.13 82.1406V93.5156H106.692V82.1406H108.13ZM112.145 87.0312V88.2578H107.872V87.0312H112.145ZM112.731 82.1406V83.375H107.872V82.1406H112.731Z" fill="#8BD3DD"/>
<path d="M123.541 89.8984H124.978C124.942 90.6797 124.783 91.3542 124.502 91.9219C124.226 92.4844 123.822 92.9167 123.291 93.2188C122.765 93.5208 122.106 93.6719 121.314 93.6719C120.746 93.6719 120.233 93.5599 119.775 93.3359C119.317 93.112 118.923 92.7917 118.595 92.375C118.272 91.9531 118.025 91.4479 117.853 90.8594C117.681 90.2708 117.595 89.6094 117.595 88.875V86.7734C117.595 86.0443 117.681 85.3854 117.853 84.7969C118.03 84.2083 118.283 83.7057 118.611 83.2891C118.944 82.8672 119.348 82.5443 119.822 82.3203C120.301 82.0964 120.843 81.9844 121.447 81.9844C122.186 81.9844 122.811 82.1328 123.322 82.4297C123.838 82.7214 124.233 83.151 124.509 83.7188C124.791 84.2812 124.947 84.9714 124.978 85.7891H123.541C123.504 85.1901 123.41 84.7031 123.259 84.3281C123.108 83.9479 122.884 83.6693 122.588 83.4922C122.296 83.3099 121.916 83.2188 121.447 83.2188C121.03 83.2188 120.668 83.3021 120.361 83.4688C120.059 83.6354 119.809 83.875 119.611 84.1875C119.418 84.4948 119.272 84.8672 119.173 85.3047C119.08 85.737 119.033 86.2214 119.033 86.7578V88.875C119.033 89.375 119.072 89.8411 119.15 90.2734C119.233 90.7057 119.364 91.0859 119.541 91.4141C119.723 91.737 119.96 91.9896 120.252 92.1719C120.543 92.3542 120.897 92.4453 121.314 92.4453C121.84 92.4453 122.257 92.3594 122.564 92.1875C122.871 92.0156 123.098 91.7422 123.244 91.3672C123.395 90.9922 123.494 90.5026 123.541 89.8984Z" fill="#8BD3DD"/>
<path d="M137.522 86.8438V88.8203C137.522 89.6224 137.433 90.3281 137.256 90.9375C137.084 91.5417 136.832 92.0469 136.498 92.4531C136.165 92.8594 135.764 93.1641 135.295 93.3672C134.827 93.5703 134.298 93.6719 133.709 93.6719C133.142 93.6719 132.623 93.5703 132.155 93.3672C131.686 93.1641 131.282 92.8594 130.944 92.4531C130.605 92.0469 130.342 91.5417 130.155 90.9375C129.972 90.3281 129.881 89.6224 129.881 88.8203V86.8438C129.881 86.0417 129.972 85.3385 130.155 84.7344C130.337 84.125 130.597 83.6172 130.936 83.2109C131.274 82.8047 131.678 82.5 132.147 82.2969C132.616 82.0885 133.134 81.9844 133.702 81.9844C134.29 81.9844 134.819 82.0885 135.287 82.2969C135.761 82.5 136.162 82.8047 136.491 83.2109C136.824 83.6172 137.079 84.125 137.256 84.7344C137.433 85.3385 137.522 86.0417 137.522 86.8438ZM136.1 88.8203V86.8281C136.1 86.2031 136.048 85.6667 135.944 85.2188C135.84 84.7656 135.686 84.3958 135.483 84.1094C135.28 83.8229 135.03 83.612 134.733 83.4766C134.436 83.3359 134.092 83.2656 133.702 83.2656C133.332 83.2656 132.998 83.3359 132.702 83.4766C132.41 83.612 132.16 83.8229 131.952 84.1094C131.743 84.3958 131.582 84.7656 131.467 85.2188C131.358 85.6667 131.303 86.2031 131.303 86.8281V88.8203C131.303 89.4505 131.358 89.9922 131.467 90.4453C131.582 90.8932 131.743 91.263 131.952 91.5547C132.165 91.8411 132.42 92.0547 132.717 92.1953C133.014 92.3307 133.345 92.3984 133.709 92.3984C134.1 92.3984 134.444 92.3307 134.741 92.1953C135.043 92.0547 135.293 91.8411 135.491 91.5547C135.694 91.263 135.845 90.8932 135.944 90.4453C136.048 89.9922 136.1 89.4505 136.1 88.8203Z" fill="#8BD3DD"/>
<path d="M142.956 82.1406H146.136C146.876 82.1406 147.495 82.2708 147.995 82.5312C148.501 82.7917 148.881 83.1771 149.136 83.6875C149.396 84.1927 149.527 84.8151 149.527 85.5547C149.527 86.0755 149.441 86.5521 149.269 86.9844C149.097 87.4115 148.847 87.776 148.519 88.0781C148.191 88.375 147.792 88.5964 147.323 88.7422L146.933 88.9062H144.097L144.081 87.6797H146.12C146.558 87.6797 146.922 87.5859 147.214 87.3984C147.506 87.2057 147.724 86.9479 147.87 86.625C148.016 86.3021 148.089 85.9453 148.089 85.5547C148.089 85.1172 148.024 84.7344 147.894 84.4062C147.764 84.0781 147.555 83.8255 147.269 83.6484C146.988 83.4661 146.61 83.375 146.136 83.375H144.394V93.5156H142.956V82.1406ZM148.417 93.5156L146.152 88.3594L147.644 88.3516L149.956 93.4219V93.5156H148.417Z" fill="#8BD3DD"/>
<path d="M154.656 82.1406H157.836C158.576 82.1406 159.195 82.2708 159.695 82.5312C160.201 82.7917 160.581 83.1771 160.836 83.6875C161.096 84.1927 161.227 84.8151 161.227 85.5547C161.227 86.0755 161.141 86.5521 160.969 86.9844C160.797 87.4115 160.547 87.776 160.219 88.0781C159.891 88.375 159.492 88.5964 159.023 88.7422L158.633 88.9062H155.797L155.781 87.6797H157.82C158.258 87.6797 158.622 87.5859 158.914 87.3984C159.206 87.2057 159.424 86.9479 159.57 86.625C159.716 86.3021 159.789 85.9453 159.789 85.5547C159.789 85.1172 159.724 84.7344 159.594 84.4062C159.464 84.0781 159.255 83.8255 158.969 83.6484C158.688 83.4661 158.31 83.375 157.836 83.375H156.094V93.5156H154.656V82.1406ZM160.117 93.5156L157.852 88.3594L159.344 88.3516L161.656 93.4219V93.5156H160.117Z" fill="#8BD3DD"/>
<path d="M167.848 82.1406V93.5156H166.411V82.1406H167.848Z" fill="#8BD3DD"/>
<path d="M179.666 92.2891V93.5156H174.728V92.2891H179.666ZM174.986 82.1406V93.5156H173.548V82.1406H174.986ZM179.002 87.0312V88.2578H174.728V87.0312H179.002ZM179.588 82.1406V83.375H174.728V82.1406H179.588Z" fill="#8BD3DD"/>
<path d="M192.139 82.1406V93.5156H190.694L186.139 84.7422V93.5156H184.702V82.1406H186.139L190.717 90.9375V82.1406H192.139Z" fill="#8BD3DD"/>
<path d="M200.402 93.5156H198.464L198.48 92.2891H200.402C201.084 92.2891 201.639 92.1589 202.066 91.8984C202.493 91.6328 202.808 91.2422 203.011 90.7266C203.214 90.2057 203.316 89.5625 203.316 88.7969V86.8516C203.316 86.2474 203.258 85.7266 203.144 85.2891C203.029 84.8516 202.857 84.4922 202.628 84.2109C202.399 83.9297 202.11 83.7214 201.761 83.5859C201.412 83.4453 201.003 83.375 200.534 83.375H198.425V82.1406H200.534C201.175 82.1406 201.753 82.2422 202.269 82.4453C202.784 82.6432 203.227 82.9427 203.597 83.3438C203.967 83.7396 204.248 84.2318 204.441 84.8203C204.639 85.4089 204.738 86.0911 204.738 86.8672V88.7969C204.738 89.5729 204.639 90.2552 204.441 90.8438C204.248 91.4323 203.964 91.9245 203.589 92.3203C203.214 92.7161 202.758 93.0156 202.222 93.2188C201.691 93.4167 201.084 93.5156 200.402 93.5156ZM199.261 82.1406V93.5156H197.823V82.1406H199.261Z" fill="#8BD3DD"/>
<path d="M217.562 86.8438V88.8203C217.562 89.6224 217.474 90.3281 217.297 90.9375C217.125 91.5417 216.872 92.0469 216.539 92.4531C216.206 92.8594 215.805 93.1641 215.336 93.3672C214.867 93.5703 214.339 93.6719 213.75 93.6719C213.182 93.6719 212.664 93.5703 212.195 93.3672C211.727 93.1641 211.323 92.8594 210.984 92.4531C210.646 92.0469 210.383 91.5417 210.195 90.9375C210.013 90.3281 209.922 89.6224 209.922 88.8203V86.8438C209.922 86.0417 210.013 85.3385 210.195 84.7344C210.378 84.125 210.638 83.6172 210.977 83.2109C211.315 82.8047 211.719 82.5 212.188 82.2969C212.656 82.0885 213.174 81.9844 213.742 81.9844C214.331 81.9844 214.859 82.0885 215.328 82.2969C215.802 82.5 216.203 82.8047 216.531 83.2109C216.865 83.6172 217.12 84.125 217.297 84.7344C217.474 85.3385 217.562 86.0417 217.562 86.8438ZM216.141 88.8203V86.8281C216.141 86.2031 216.089 85.6667 215.984 85.2188C215.88 84.7656 215.727 84.3958 215.523 84.1094C215.32 83.8229 215.07 83.612 214.773 83.4766C214.477 83.3359 214.133 83.2656 213.742 83.2656C213.372 83.2656 213.039 83.3359 212.742 83.4766C212.451 83.612 212.201 83.8229 211.992 84.1094C211.784 84.3958 211.622 84.7656 211.508 85.2188C211.398 85.6667 211.344 86.2031 211.344 86.8281V88.8203C211.344 89.4505 211.398 89.9922 211.508 90.4453C211.622 90.8932 211.784 91.263 211.992 91.5547C212.206 91.8411 212.461 92.0547 212.758 92.1953C213.055 92.3307 213.385 92.3984 213.75 92.3984C214.141 92.3984 214.484 92.3307 214.781 92.1953C215.083 92.0547 215.333 91.8411 215.531 91.5547C215.734 91.263 215.885 90.8932 215.984 90.4453C216.089 89.9922 216.141 89.4505 216.141 88.8203Z" fill="#8BD3DD"/>
<path d="M235.978 92.2891V93.5156H231.041V92.2891H235.978ZM231.298 82.1406V93.5156H229.861V82.1406H231.298ZM235.314 87.0312V88.2578H231.041V87.0312H235.314ZM235.9 82.1406V83.375H231.041V82.1406H235.9Z" fill="#8BD3DD"/>
<path d="M246.913 92.2891V93.5156H242.194V92.2891H246.913ZM242.452 82.1406V93.5156H241.014V82.1406H242.452Z" fill="#8BD3DD"/>
<path d="M262.32 89.0547H259.836V87.8281H262.32C262.789 87.8281 263.167 87.7344 263.453 87.5469C263.745 87.3594 263.956 87.099 264.086 86.7656C264.221 86.4323 264.289 86.0521 264.289 85.625C264.289 85.2344 264.221 84.8672 264.086 84.5234C263.956 84.1797 263.745 83.9036 263.453 83.6953C263.167 83.4818 262.789 83.375 262.32 83.375H260.133V93.5156H258.695V82.1406H262.32C263.055 82.1406 263.674 82.2891 264.18 82.5859C264.685 82.8828 265.068 83.2943 265.328 83.8203C265.594 84.3411 265.727 84.9375 265.727 85.6094C265.727 86.3385 265.594 86.9609 265.328 87.4766C265.068 87.9922 264.685 88.3854 264.18 88.6562C263.674 88.9219 263.055 89.0547 262.32 89.0547Z" fill="#8BD3DD"/>
<path d="M273.38 83.1484L270.27 93.5156H268.802L272.466 82.1406H273.387L273.38 83.1484ZM275.895 93.5156L272.786 83.1484L272.77 82.1406H273.7L277.364 93.5156H275.895ZM275.895 89.3047V90.5391H270.411V89.3047H275.895Z" fill="#8BD3DD"/>
<path d="M283.627 82.1406V93.5156H282.189V82.1406H283.627ZM282.103 81.2969L283.619 79H285.361L283.267 81.2969H282.103Z" fill="#8BD3DD"/>
<path d="M294.303 90.6406C294.303 90.375 294.272 90.1406 294.209 89.9375C294.147 89.7292 294.038 89.5417 293.881 89.375C293.725 89.2083 293.506 89.0495 293.225 88.8984C292.944 88.7474 292.587 88.5938 292.155 88.4375C291.686 88.2708 291.261 88.0859 290.881 87.8828C290.501 87.6745 290.176 87.4375 289.905 87.1719C289.639 86.9062 289.433 86.6016 289.288 86.2578C289.142 85.9141 289.069 85.5208 289.069 85.0781C289.069 84.6354 289.144 84.2266 289.295 83.8516C289.452 83.4766 289.67 83.151 289.952 82.875C290.238 82.5938 290.582 82.375 290.983 82.2188C291.384 82.0625 291.832 81.9844 292.327 81.9844C293.066 81.9844 293.689 82.1484 294.194 82.4766C294.704 82.7995 295.09 83.224 295.35 83.75C295.61 84.2708 295.741 84.8281 295.741 85.4219H294.303C294.303 84.9948 294.233 84.6172 294.092 84.2891C293.957 83.9557 293.743 83.6953 293.452 83.5078C293.165 83.3151 292.79 83.2188 292.327 83.2188C291.91 83.2188 291.566 83.2995 291.295 83.4609C291.03 83.6224 290.832 83.8411 290.702 84.1172C290.577 84.3932 290.514 84.7083 290.514 85.0625C290.514 85.3021 290.556 85.5208 290.639 85.7188C290.722 85.9115 290.85 86.0911 291.022 86.2578C291.199 86.4245 291.418 86.5781 291.678 86.7188C291.944 86.8594 292.256 86.9948 292.616 87.125C293.173 87.3073 293.649 87.5104 294.045 87.7344C294.441 87.9583 294.764 88.2109 295.014 88.4922C295.264 88.7682 295.446 89.0833 295.561 89.4375C295.681 89.7865 295.741 90.1823 295.741 90.625C295.741 91.0885 295.662 91.5078 295.506 91.8828C295.355 92.2578 295.134 92.5781 294.842 92.8438C294.551 93.1094 294.199 93.3151 293.788 93.4609C293.376 93.6016 292.913 93.6719 292.397 93.6719C291.949 93.6719 291.509 93.599 291.077 93.4531C290.649 93.3073 290.261 93.0885 289.913 92.7969C289.564 92.5052 289.285 92.1458 289.077 91.7188C288.868 91.2865 288.764 90.7865 288.764 90.2188H290.202C290.202 90.6094 290.259 90.9453 290.373 91.2266C290.488 91.5026 290.647 91.7318 290.85 91.9141C291.053 92.0964 291.285 92.2318 291.545 92.3203C291.811 92.4036 292.095 92.4453 292.397 92.4453C292.814 92.4453 293.163 92.3724 293.444 92.2266C293.73 92.0807 293.944 91.8724 294.084 91.6016C294.23 91.3307 294.303 91.0104 294.303 90.6406Z" fill="#8BD3DD"/>
<rect x="309" y="85" width="35" height="3" fill="#8BD3DD"/>
<rect x="47" y="85" width="35" height="3" fill="#8BD3DD"/>
</svg>
